<svg aria-hidden="true" style="position:absolute;width:0;height:0;overflow:hidden" xmlns="http://www.w3.org/2000/svg"><defs><symbol id="icon-search" viewBox="0 0 32 32"><path fill="#ed4c5c" style="fill:var(--color1, #ed4c5c)" d="M16.472 1.691 27.091 5.31c.259.091.472.388.466.662v15.075c0 .278-.178.641-.394.809L16.391 30.25c-.106.084-.25.128-.394.128s-.284-.044-.394-.128L4.831 21.856c-.216-.172-.394-.534-.394-.809V5.972c0-.275.213-.575.472-.662l10.619-3.619c.128-.044.3-.066.472-.066s.344.022.472.066zM16 27.703l9.313-7.256V7.084L16 3.909 6.687 7.084v13.363L16 27.703z"/><path fill="#ed4c5c" style="fill:var(--color1, #ed4c5c)" d="M12.591 16.525a4.503 4.503 0 1 1 1.416 1.416l-2.422 2.422a.25.25 0 0 1-.353 0L10.169 19.3a.253.253 0 0 1 0-.354l2.422-2.422zm5.581-4.166a2.501 2.501 0 1 0-3.536 3.537 2.501 2.501 0 0 0 3.536-3.537z"/></symbol><symbol id="icon-pdf" viewBox="0 0 32 32"><path fill="#ed4c5c" style="fill:var(--color1, #ed4c5c)" d="M10.845 16.306c0-.665-.462-1.062-1.276-1.062-.332 0-.557.032-.675.064v2.135c.14.032.311.043.547.043.868 0 1.404-.44 1.404-1.18zM15.887 15.265c-.365 0-.601.032-.741.065v4.729c.14.032.365.032.568.032 1.48.01 2.445-.805 2.445-2.531.011-1.502-.868-2.296-2.273-2.296z"/><path fill="#ed4c5c" style="fill:var(--color1, #ed4c5c)" d="M25.548 12.487h-.593V9.626a.329.329 0 0 0-.005-.054.475.475 0 0 0-.115-.314l-4.763-5.439a.483.483 0 0 0-.223-.139l-.026-.009a.463.463 0 0 0-.111-.014H8.014a.97.97 0 0 0-.968.968v7.862h-.593c-.764 0-1.383.619-1.383 1.383v7.195c0 .763.62 1.384 1.383 1.384h.593v4.926a.97.97 0 0 0 .968.968h15.974a.97.97 0 0 0 .968-.968v-4.926h.593c.764 0 1.383-.62 1.383-1.384V13.87c0-.764-.62-1.383-1.383-1.383zM8.013 4.625h11.214v4.953c0 .268.217.484.484.484h4.276v2.425H8.012V4.625zm11.885 12.882c0 1.384-.504 2.338-1.202 2.928-.761.632-1.919.933-3.335.933a14.31 14.31 0 0 1-1.856-.107v-7.1c.601-.096 1.383-.15 2.21-.15 1.372 0 2.262.247 2.959.772.751.557 1.223 1.447 1.223 2.723zM7.273 21.293V14.16c.504-.086 1.212-.15 2.209-.15 1.008 0 1.727.193 2.209.579.461.365.771.965.771 1.673s-.235 1.308-.665 1.716c-.558.526-1.383.762-2.349.762-.214 0-.408-.01-.557-.032v2.585H7.272zm16.714 5.82H8.013v-4.664h15.974v4.664zm1.403-11.708h-2.778v1.652h2.596v1.33h-2.596v2.906h-1.64v-7.229h4.418v1.341z"/></symbol><symbol id="icon-obl" viewBox="0 0 32 32"><path fill="#ed4c5c" style="fill:var(--color1, #ed4c5c)" d="M19.5 22.072h-2.316V14.5a.25.25 0 0 0-.25-.25h-1.875a.251.251 0 0 0-.25.25v7.572H12.5a.25.25 0 0 0-.197.403l3.5 4.428a.25.25 0 0 0 .306.071.24.24 0 0 0 .087-.071l3.5-4.428a.25.25 0 0 0-.197-.403z"/><path fill="#ed4c5c" style="fill:var(--color1, #ed4c5c)" d="M25.356 11.459C23.925 7.684 20.278 5 16.006 5s-7.919 2.681-9.35 6.456A6.253 6.253 0 0 0 2 17.5a6.248 6.248 0 0 0 6.247 6.25H9.5a.25.25 0 0 0 .25-.25v-1.875a.25.25 0 0 0-.25-.25H8.247a3.876 3.876 0 0 1-3.053-6.262 3.916 3.916 0 0 1 2.066-1.366l1.184-.309.434-1.144a7.686 7.686 0 0 1 2.753-3.54c1.284-.903 2.797-1.381 4.375-1.381s3.091.478 4.375 1.381a7.72 7.72 0 0 1 1.638 1.559 7.572 7.572 0 0 1 1.116 1.981l.431 1.141 1.181.313a3.892 3.892 0 0 1 2.878 3.753 3.857 3.857 0 0 1-1.134 2.741 3.832 3.832 0 0 1-2.737 1.134h-1.253a.25.25 0 0 0-.25.25v1.875c0 .138.112.25.25.25h1.253a6.252 6.252 0 0 0 1.603-12.291z"/></symbol><symbol id="icon-logo-cloud" viewBox="0 0 32 32"><path fill="#fff" style="fill:var(--color2, #fff)" d="M23.84 14.4c0-.48.16-.96.16-1.6 0-3.52-2.88-6.4-6.4-6.4-2.56 0-4.64 1.44-5.76 3.52-.32-.16-.96-.32-1.44-.32-2.24 0-4 1.76-4 4 0 .32 0 .64.16.8-2.88.48-4.96 2.72-4.96 5.6 0 3.04 2.56 5.6 5.6 5.6h16c3.04 0 5.6-2.56 5.6-5.6 0-2.88-2.08-5.28-4.96-5.6z"/></symbol><symbol id="icon-cvg" viewBox="0 0 28 32"><path fill="#ed4c5c" style="fill:var(--color1, #ed4c5c)" d="M26.089 11.235h-.755V7.596a.538.538 0 0 0-.007-.069.6.6 0 0 0-.147-.398L19.113.207a.602.602 0 0 0-.123-.102l-.04-.024a.61.61 0 0 0-.121-.051l-.033-.011a.564.564 0 0 0-.142-.018H3.751c-.681 0-1.233.553-1.233 1.232v10.003h-.755a1.76 1.76 0 0 0-1.762 1.76v9.155c0 .971.79 1.76 1.762 1.76h.755v6.266c0 .679.553 1.232 1.233 1.232h20.35c.68 0 1.233-.553 1.233-1.232v-6.266h.755c.973 0 1.762-.788 1.762-1.76v-9.155a1.76 1.76 0 0 0-1.762-1.759zM3.751 1.232h14.286v6.302c0 .341.276.615.617.615h5.448v3.085H3.751V1.231zm9.227 16.876c-1.497-.534-2.486-1.362-2.486-2.669 0-1.534 1.297-2.695 3.408-2.695 1.029 0 1.764.2 2.298.453l-.455 1.628a4.24 4.24 0 0 0-1.871-.426c-.882 0-1.31.413-1.31.867 0 .574.493.827 1.67 1.267 1.591.587 2.325 1.414 2.325 2.683 0 1.509-1.149 2.789-3.621 2.789-1.029 0-2.044-.28-2.552-.561l.414-1.668a5.14 5.14 0 0 0 2.257.561c.936 0 1.43-.388 1.43-.975 0-.561-.427-.88-1.51-1.254zm-10.613-.614c0-3.056 2.191-4.751 4.916-4.751 1.056 0 1.857.213 2.218.387l-.428 1.614a4.288 4.288 0 0 0-1.71-.334c-1.603 0-2.859.973-2.859 2.975 0 1.788 1.068 2.923 2.872 2.923.628 0 1.297-.119 1.71-.294l.295 1.601c-.361.172-1.217.387-2.298.387-3.114.001-4.717-1.947-4.717-4.509zm21.736 12.35H3.751V23.91h20.35v5.934zm-1.647-7.973h-2.379l-2.885-8.995h2.231l1.095 3.804c.306 1.08.587 2.095.801 3.216h.04c.228-1.069.5-2.129.814-3.175l1.15-3.843h2.164l-3.031 8.993z"/></symbol><symbol id="icon-google-playstore" viewBox="0 0 32 32"><path fill="#fff" style="fill:var(--color2, #fff)" d="M3 3.718V28.28a.27.27 0 0 0 .461.192L16.25 15.999 3.461 3.525a.273.273 0 0 0-.294-.057c-.049.021-.091.055-.121.099S3 3.663 3 3.717zM21.613 10.875 5.567 2.034c-.276-.15-.539.224-.313.441l12.571 12.02 3.788-3.621zM5.255 29.524c-.228.218.035.591.313.441l.01-.006 16.035-8.835-3.788-3.622L5.256 29.523zM28.086 14.437l-4.478-2.466L19.397 16l4.211 4.027 4.478-2.464c1.218-.673 1.218-2.452 0-3.125z"/></symbol><symbol id="icon-apple-appstore" viewBox="0 0 32 32"><path fill="#fff" style="fill:var(--color2, #fff)" d="M16 2C8.266 2 2 8.266 2 16s6.266 14 14 14 14-6.266 14-14S23.734 2 16 2zm-5.312 20.118a.964.964 0 0 1-.842.478.925.925 0 0 1-.491-.135.972.972 0 0 1-.45-.59.964.964 0 0 1 .101-.736l.956-1.589a.54.54 0 0 1 .471-.269h.141c.693 0 1.178.417 1.319.821l-1.205 2.019zm8.09-3.125L8.361 19a.978.978 0 0 1-.701-.296.968.968 0 0 1-.268-.713c.02-.525.478-.922 1-.922h3.015l3.574-6.084-1.158-1.972c-.261-.449-.145-1.042.302-1.324a.974.974 0 0 1 1.367.323l.619 1.057h.007l.619-1.057a.983.983 0 0 1 .613-.451.975.975 0 0 1 .75.128c.444.282.559.875.296 1.326l-4.726 8.056v.007h3.601c.451 0 1.017.242 1.246.633l.02.041c.202.343.316.579.316.922a.86.86 0 0 1-.073.323l-.002-.002zm4.859.007h-1.694v.007l1.239 2.107a.99.99 0 0 1-.323 1.346.968.968 0 0 1-.988.015.982.982 0 0 1-.358-.349l-2.968-5.054-1.468-2.509a2.391 2.391 0 0 1-.041-2.375c.29-.512.512-.646.512-.646l3.264 5.521h2.807c.525 0 .976.404 1 .922A.977.977 0 0 1 23.638 19h-.002z"/></symbol><symbol id="icon-phone" viewBox="0 0 32 32"><path fill="none" stroke="#9da4bd" style="stroke:var(--color3, #9da4bd)" stroke-linejoin="round" stroke-linecap="round" stroke-width="1.333" d="M26.666 21.337v3.218a2.146 2.146 0 0 1-2.338 2.145 21.239 21.239 0 0 1-9.257-3.293 20.914 20.914 0 0 1-6.436-6.436 21.221 21.221 0 0 1-3.293-9.3 2.144 2.144 0 0 1 2.134-2.338h3.218a2.144 2.144 0 0 1 2.145 1.845c.136 1.03.388 2.041.751 3.014a2.144 2.144 0 0 1-.483 2.263l-1.362 1.362a17.162 17.162 0 0 0 6.436 6.436l1.362-1.362a2.146 2.146 0 0 1 2.263-.483c.973.363 1.984.615 3.014.751a2.144 2.144 0 0 1 1.845 2.177z"/></symbol><symbol id="icon-mail" viewBox="0 0 32 32"><path fill="none" stroke="#9da4bd" style="stroke:var(--color3, #9da4bd)" stroke-linejoin="round" stroke-linecap="round" stroke-width="1.333" d="M6.4 6.667h19.2c1.32 0 2.4 1.05 2.4 2.333v14c0 1.283-1.08 2.333-2.4 2.333H6.4C5.08 25.333 4 24.283 4 23V9c0-1.283 1.08-2.333 2.4-2.333z"/><path fill="none" stroke="#9da4bd" style="stroke:var(--color3, #9da4bd)" stroke-linejoin="round" stroke-linecap="round" stroke-width="1.333" d="m26.667 9.333-10.667 8-10.667-8"/></symbol><symbol id="icon-map-pin" viewBox="0 0 32 32"><path fill="none" stroke="#9da4bd" style="stroke:var(--color3, #9da4bd)" stroke-linejoin="round" stroke-linecap="round" stroke-width="1.333" d="M26.667 13.818C26.667 21.454 16 28 16 28S5.333 21.455 5.333 13.818C5.333 8.396 10.109 4 16 4s10.667 4.396 10.667 9.818v0z"/><path fill="none" stroke="#9da4bd" style="stroke:var(--color3, #9da4bd)" stroke-linejoin="round" stroke-linecap="round" stroke-width="1.333" d="M16 18.667a4 4 0 1 0 0-8 4 4 0 0 0 0 8z"/></symbol><symbol id="icon-twitter" viewBox="0 0 32 32"><path d="M32 6.078c-1.19.522-2.458.868-3.78 1.036a6.523 6.523 0 0 0 2.886-3.626 13.11 13.11 0 0 1-4.16 1.588A6.574 6.574 0 0 0 22.154 3c-3.632 0-6.556 2.948-6.556 6.562 0 .52.044 1.02.152 1.496-5.454-.266-10.28-2.88-13.522-6.862a6.605 6.605 0 0 0-.898 3.316 6.57 6.57 0 0 0 2.914 5.452 6.479 6.479 0 0 1-2.964-.808v.072c0 3.188 2.274 5.836 5.256 6.446a6.548 6.548 0 0 1-1.72.216 5.8 5.8 0 0 1-1.242-.112c.85 2.598 3.262 4.508 6.13 4.57a13.182 13.182 0 0 1-8.134 2.798c-.538 0-1.054-.024-1.57-.09A18.469 18.469 0 0 0 10.064 29c12.072 0 18.672-10 18.672-18.668 0-.29-.01-.57-.024-.848A13.087 13.087 0 0 0 32 6.078z"/></symbol><symbol id="icon-linkedin" viewBox="0 0 32 32"><path d="M31.992 32v-.001H32V20.263c0-5.741-1.236-10.164-7.948-10.164-3.227 0-5.392 1.771-6.276 3.449h-.093v-2.913h-6.364v21.364h6.627V21.42c0-2.785.528-5.479 3.977-5.479 3.399 0 3.449 3.179 3.449 5.657v10.401h6.62zM.528 10.636h6.635V32H.528V10.636zM3.843 0C1.722 0 0 1.721 0 3.843s1.721 3.879 3.843 3.879c2.121 0 3.843-1.757 3.843-3.879A3.846 3.846 0 0 0 3.843 0z"/></symbol><symbol id="icon-instagram" viewBox="0 0 32 32"><path d="M31.969 9.408c-.075-1.7-.35-2.869-.744-3.882a7.806 7.806 0 0 0-1.851-2.838A7.867 7.867 0 0 0 26.542.844C25.523.45 24.36.175 22.66.1 20.947.019 20.403 0 16.059 0s-4.888.019-6.595.094c-1.7.075-2.869.35-3.882.744a7.803 7.803 0 0 0-2.838 1.85A7.867 7.867 0 0 0 .9 5.52C.506 6.539.231 7.702.156 9.402c-.081 1.713-.1 2.257-.1 6.601s.019 4.888.094 6.595c.075 1.7.35 2.869.744 3.882a7.895 7.895 0 0 0 1.85 2.838 7.867 7.867 0 0 0 2.832 1.844c1.019.394 2.182.669 3.882.744 1.706.075 2.25.094 6.595.094s4.888-.019 6.595-.094c1.7-.075 2.869-.35 3.882-.744a8.184 8.184 0 0 0 4.682-4.682c.394-1.019.669-2.182.744-3.882.075-1.707.094-2.251.094-6.595s-.006-4.888-.081-6.595zm-2.882 13.065c-.069 1.563-.331 2.407-.55 2.969a5.31 5.31 0 0 1-3.038 3.038c-.563.219-1.413.481-2.969.55-1.688.075-2.194.094-6.464.094s-4.782-.019-6.464-.094c-1.563-.069-2.407-.331-2.969-.55a4.926 4.926 0 0 1-1.838-1.194 4.974 4.974 0 0 1-1.194-1.838c-.219-.563-.481-1.413-.55-2.969-.075-1.688-.094-2.194-.094-6.464s.019-4.782.094-6.464c.069-1.563.331-2.407.55-2.969a4.868 4.868 0 0 1 1.2-1.838A4.974 4.974 0 0 1 6.639 3.55c.563-.219 1.413-.481 2.969-.55 1.688-.075 2.194-.094 6.464-.094 4.276 0 4.782.019 6.464.094 1.563.069 2.407.331 2.969.55a4.914 4.914 0 0 1 1.838 1.194 4.974 4.974 0 0 1 1.194 1.838c.219.563.481 1.413.55 2.969.075 1.688.094 2.194.094 6.464s-.019 4.77-.094 6.458z"/><path d="M16.059 7.783c-4.538 0-8.22 3.682-8.22 8.22s3.682 8.22 8.22 8.22c4.539 0 8.22-3.682 8.22-8.22s-3.682-8.22-8.22-8.22zm0 13.552a5.333 5.333 0 0 1 0-10.664 5.333 5.333 0 0 1 0 10.664zM26.524 7.458a1.919 1.919 0 1 1-3.838 0 1.919 1.919 0 0 1 3.838 0z"/></symbol><symbol id="icon-facebook" viewBox="0 0 32 32"><path d="M21.33 5.313h2.921V.225C23.747.156 22.014 0 19.995 0c-4.212 0-7.097 2.649-7.097 7.519V12H8.25v5.688h4.648V32h5.699V17.689h4.46l.708-5.688h-5.169V8.082c.001-1.644.444-2.769 2.735-2.769z"/></symbol></defs></svg>