<svg aria-hidden="true" style="position: absolute; width: 0; height: 0; overflow: hidden;" version="1.1" xmlns="http://www.w3.org/2000/svg" xmlns:xlink="http://www.w3.org/1999/xlink">
<defs>
<symbol id="icon-logo-cloud" viewBox="0 0 32 32">
<path fill="#fff" style="fill: var(--color1, #fff)" d="M23.84 14.4c0-0.48 0.16-0.96 0.16-1.6 0-3.52-2.88-6.4-6.4-6.4-2.56 0-4.64 1.44-5.76 3.52-0.32-0.16-0.96-0.32-1.44-0.32-2.24 0-4 1.76-4 4 0 0.32 0 0.64 0.16 0.8-2.88 0.48-4.96 2.72-4.96 5.6 0 3.040 2.56 5.6 5.6 5.6h16c3.040 0 5.6-2.56 5.6-5.6 0-2.88-2.080-5.28-4.96-5.6z"></path>
</symbol>
</defs>
</svg>
